<svg width="305" height="131" viewBox="0 0 305 131" fill="none" xmlns="http://www.w3.org/2000/svg">
<path fill-rule="evenodd" clip-rule="evenodd" d="M82.6161 13.3495C91.1897 21.897 96.0063 33.49 96.0063 45.578L84.577 45.578C84.577 36.512 80.9646 27.8173 74.5343 21.4066C68.1041 14.996 59.3828 11.3945 50.289 11.3945C41.1953 11.3945 32.474 14.996 26.0438 21.4066C19.6135 27.8173 16.001 36.512 16.001 45.578L4.57172 45.578C4.57172 33.49 9.38835 21.897 17.962 13.3495C26.5357 4.80195 38.1641 0 50.289 0C62.414 0 74.0424 4.80196 82.6161 13.3495Z" fill="white"/>
<path fill-rule="evenodd" clip-rule="evenodd" d="M182.051 13.3495C190.625 21.897 195.441 33.49 195.441 45.578L184.012 45.578C184.012 36.512 180.4 27.8173 173.969 21.4066C167.539 14.996 158.818 11.3945 149.724 11.3945C140.63 11.3945 131.909 14.996 125.479 21.4066C119.049 27.8173 115.436 36.512 115.436 45.578L104.007 45.578C104.007 33.49 108.824 21.897 117.397 13.3495C125.971 4.80195 137.599 0 149.724 0C161.849 0 173.478 4.80196 182.051 13.3495Z" fill="white"/>
<path fill-rule="evenodd" clip-rule="evenodd" d="M281.486 13.3495C290.06 21.897 294.877 33.49 294.877 45.578L283.447 45.578C283.447 36.512 279.835 27.8173 273.405 21.4066C266.974 14.996 258.253 11.3945 249.159 11.3945C240.066 11.3945 231.344 14.996 224.914 21.4066C218.484 27.8173 214.871 36.512 214.871 45.578L203.442 45.578C203.442 33.49 208.259 21.897 216.832 13.3495C225.406 4.80195 237.034 0 249.159 0C261.284 0 272.913 4.80196 281.486 13.3495Z" fill="white"/>
<path d="M1.58099 82.0835V81.6524L2.48617 81.3507C3.06089 81.1495 3.43445 80.8909 3.60687 80.5748C3.77928 80.23 3.86549 79.7559 3.86549 79.1524V56.6091C3.86549 56.0344 3.77928 55.589 3.60687 55.2729C3.46319 54.9281 3.11836 54.6551 2.57238 54.4539L1.58099 54.066V53.6349H13.9087C17.2995 53.6349 19.9001 54.2815 21.7105 55.5746C23.5208 56.839 24.426 58.6063 24.426 60.8764C24.426 62.1408 23.9519 63.4051 23.0036 64.6695C22.0553 65.9339 20.561 66.9109 18.5208 67.6006L24.5122 79.4972C24.7708 79.9857 25.0582 80.388 25.3743 80.7041C25.7191 80.9915 26.1645 81.2501 26.7105 81.48L27.2709 81.6955V82.0835H19.5553L13.1759 68.5058H10.2449V79.1524C10.2449 79.6984 10.3311 80.1438 10.5035 80.4886C10.6759 80.8335 11.0351 81.0921 11.5811 81.2645L12.6156 81.6524V82.0835H1.58099ZM10.2449 67.6437H12.3138C14.3828 67.6437 15.8771 67.0977 16.7966 66.0057C17.7162 64.885 18.176 63.2327 18.176 61.0488C18.176 58.8361 17.7449 57.1982 16.8828 56.135C16.0208 55.043 14.5696 54.497 12.5294 54.497H10.2449V67.6437ZM28.6472 82.0835V81.6524L29.5092 81.3076C30.0839 81.1064 30.4575 80.8335 30.6299 80.4886C30.8311 80.1438 30.9317 79.684 30.9317 79.1093V56.6091C30.9317 56.0344 30.8455 55.5746 30.673 55.2298C30.5006 54.885 30.1127 54.612 29.5092 54.4108L28.6472 54.066V53.6349H39.7248V54.066L38.8628 54.4108C38.288 54.612 37.9001 54.885 37.699 55.2298C37.5265 55.5746 37.4403 56.0344 37.4403 56.6091V79.1093C37.4403 79.684 37.5265 80.1438 37.699 80.4886C37.9001 80.8047 38.288 81.0777 38.8628 81.3076L39.7248 81.6524V82.0835H28.6472ZM52.9052 82.2128L43.681 56.5229C43.4798 55.9482 43.2068 55.5028 42.862 55.1867C42.5459 54.8419 42.1005 54.5832 41.5258 54.4108L40.4913 54.066V53.6349H52.9052V54.066L51.569 54.4539C50.908 54.6263 50.5345 54.9281 50.4483 55.3591C50.3908 55.7901 50.4626 56.3218 50.6638 56.9539L57.0431 75.8765L63.4656 56.9108C63.6955 56.2499 63.7961 55.7039 63.7673 55.2729C63.7673 54.8419 63.4369 54.5401 62.776 54.3677L61.6553 54.066V53.6349H67.6898V54.066L66.526 54.4108C65.98 54.5545 65.5921 54.8131 65.3622 55.1867C65.1323 55.5315 64.9168 55.9913 64.7156 56.566L56.0949 82.2128H52.9052ZM68.8465 82.0835V81.6524L69.8379 81.2645C70.3264 81.0633 70.6569 80.8047 70.8293 80.4886C71.0304 80.1438 71.131 79.684 71.131 79.1093V56.6091C71.131 56.0344 71.0448 55.589 70.8724 55.2729C70.7287 54.9281 70.3839 54.6551 69.8379 54.4539L68.8465 54.066V53.6349H89.4932L89.7519 60.2729H89.3208L87.4674 56.2212C87.2087 55.7039 86.9358 55.2873 86.6484 54.9712C86.361 54.6551 85.93 54.497 85.3553 54.497H77.5966V66.954H82.2087C82.7834 66.954 83.2145 66.8103 83.5018 66.523C83.8179 66.2069 84.0909 65.7902 84.3208 65.273L85.1829 63.5488H85.6139V71.3075H85.1829L84.3208 69.4971C84.0622 68.9799 83.7892 68.5776 83.5018 68.2902C83.2145 67.9741 82.7834 67.8161 82.2087 67.8161H77.5966V81.2214H86.3036C86.8783 81.2214 87.3237 81.0777 87.6398 80.7904C87.9559 80.4743 88.2145 80.0432 88.4156 79.4972L90.1829 75.4455H90.6139L90.3553 82.0835H68.8465ZM102.023 82.8593C100.443 82.8593 98.8333 82.6582 97.1954 82.2559C95.5574 81.8823 94.1925 81.3794 93.1005 80.7472L93.316 74.8851H93.7471L95.0833 77.6869C95.4856 78.4915 95.9166 79.2099 96.3764 79.8421C96.8362 80.4455 97.4683 80.9197 98.273 81.2645C98.8477 81.5519 99.3937 81.753 99.9109 81.8679C100.457 81.9542 101.06 81.9973 101.721 81.9973C103.474 81.9973 104.853 81.5231 105.859 80.5748C106.894 79.6265 107.411 78.4053 107.411 76.911C107.411 75.5029 107.066 74.411 106.376 73.6351C105.687 72.8305 104.58 72.0546 103.057 71.3075L101.29 70.5316C98.8189 69.4397 96.8793 68.1897 95.4712 66.7816C94.0919 65.3448 93.4022 63.4482 93.4022 61.0919C93.4022 59.3965 93.8333 57.931 94.6953 56.6953C95.5861 55.4597 96.8074 54.5114 98.3592 53.8505C99.9396 53.1895 101.779 52.8591 103.876 52.8591C105.399 52.8591 106.836 53.0602 108.187 53.4625C109.566 53.8648 110.759 54.4108 111.764 55.1005L111.506 60.2729H111.075L109.308 57.0401C108.819 56.0344 108.331 55.3304 107.842 54.9281C107.353 54.497 106.793 54.1953 106.161 54.0229C105.787 53.9079 105.443 53.8361 105.126 53.8074C104.81 53.7499 104.408 53.7212 103.92 53.7212C102.454 53.7212 101.218 54.1522 100.213 55.0143C99.2069 55.8476 98.704 56.9827 98.704 58.4195C98.704 59.885 99.0919 61.0632 99.8678 61.954C100.644 62.8161 101.779 63.5919 103.273 64.2816L105.256 65.1437C108.014 66.3506 109.997 67.6437 111.204 69.023C112.411 70.3736 113.014 72.1265 113.014 74.2817C113.014 76.8104 112.052 78.8794 110.127 80.4886C108.23 82.0691 105.529 82.8593 102.023 82.8593ZM124.62 82.0835V81.6524L125.526 81.3076C126.445 80.934 126.905 80.2013 126.905 79.1093V56.6091C126.905 55.4597 126.445 54.7269 125.526 54.4108L124.62 54.066V53.6349H136C139.046 53.6349 141.661 54.2097 143.845 55.3591C146.057 56.4798 147.753 58.1034 148.931 60.2298C150.138 62.3275 150.741 64.8563 150.741 67.8161C150.741 70.8334 150.095 73.4052 148.802 75.5317C147.509 77.6581 145.698 79.2817 143.371 80.4024C141.072 81.5231 138.356 82.0835 135.224 82.0835H124.62ZM133.371 81.2214H135.224C137.293 81.2214 138.96 80.8191 140.224 80.0145C141.488 79.1811 142.408 77.8018 142.983 75.8765C143.586 73.9225 143.888 71.25 143.888 67.8592C143.888 64.4684 143.586 61.8103 142.983 59.885C142.408 57.931 141.503 56.5516 140.267 55.747C139.032 54.9137 137.408 54.497 135.396 54.497H133.371V81.2214ZM151.518 82.0835V81.6524L152.51 81.2645C152.998 81.0633 153.329 80.8047 153.501 80.4886C153.702 80.1438 153.803 79.684 153.803 79.1093V56.6091C153.803 56.0344 153.717 55.589 153.544 55.2729C153.4 54.9281 153.056 54.6551 152.51 54.4539L151.518 54.066V53.6349H172.165L172.424 60.2729H171.993L170.139 56.2212C169.881 55.7039 169.608 55.2873 169.32 54.9712C169.033 54.6551 168.602 54.497 168.027 54.497H160.268V66.954H164.88C165.455 66.954 165.886 66.8103 166.174 66.523C166.49 66.2069 166.763 65.7902 166.993 65.273L167.855 63.5488H168.286V71.3075H167.855L166.993 69.4971C166.734 68.9799 166.461 68.5776 166.174 68.2902C165.886 67.9741 165.455 67.8161 164.88 67.8161H160.268V81.2214H168.975C169.55 81.2214 169.995 81.0777 170.312 80.7904C170.628 80.4743 170.886 80.0432 171.087 79.4972L172.855 75.4455H173.286L173.027 82.0835H151.518ZM184.814 82.0835V81.6524L185.59 81.3507C186.165 81.1208 186.553 80.8335 186.754 80.4886C186.984 80.1438 187.099 79.684 187.099 79.1093V56.6091C187.099 56.0057 186.984 55.5315 186.754 55.1867C186.553 54.8419 186.165 54.5689 185.59 54.3677L184.814 54.066V53.6349H197.185C200.691 53.6349 203.22 54.2815 204.771 55.5746C206.323 56.839 207.099 58.4482 207.099 60.4022C207.099 61.8678 206.524 63.204 205.375 64.4109C204.254 65.5891 202.314 66.4224 199.556 66.9109C202.717 67.2558 205.03 68.0891 206.496 69.4109C207.961 70.7041 208.694 72.2845 208.694 74.1524C208.694 75.0719 208.493 76.0058 208.09 76.9541C207.688 77.8737 206.998 78.7214 206.021 79.4972C205.073 80.2731 203.766 80.9053 202.099 81.3938C200.432 81.8536 198.32 82.0835 195.763 82.0835H184.814ZM193.478 66.8678H195.332C197.257 66.8678 198.636 66.4224 199.47 65.5316C200.332 64.6408 200.763 63.089 200.763 60.8764C200.763 58.5775 200.375 56.9396 199.599 55.9626C198.823 54.9855 197.559 54.497 195.806 54.497H193.478V66.8678ZM193.478 81.2214H195.633C197.789 81.2214 199.383 80.6467 200.418 79.4972C201.481 78.3478 202.013 76.5518 202.013 74.1093C202.013 71.8104 201.51 70.1724 200.504 69.1954C199.498 68.2184 197.846 67.7299 195.547 67.7299H193.478V81.2214ZM209.86 82.0835V81.6524L210.765 81.3076C211.369 81.0777 211.742 80.8047 211.886 80.4886C212.058 80.1438 212.144 79.684 212.144 79.1093V56.6091C212.144 56.0344 212.058 55.5746 211.886 55.2298C211.713 54.885 211.34 54.612 210.765 54.4108L209.86 54.066V53.6349H220.851V54.066L220.076 54.4108C219.53 54.612 219.156 54.8993 218.955 55.2729C218.754 55.6177 218.653 56.0775 218.653 56.6522V81.2214H225.291C226.354 81.2214 227.13 80.9628 227.619 80.4455C228.136 79.9283 228.625 79.1811 229.084 78.2041L230.765 74.5834H231.196L230.808 82.0835H209.86ZM244.655 82.8593C242.471 82.8593 240.531 82.4714 238.836 81.6955C237.169 80.9197 235.862 79.6984 234.913 78.0317C233.994 76.3363 233.534 74.1093 233.534 71.3506V56.4798C233.534 55.3878 232.974 54.6694 231.853 54.3246L230.905 54.066V53.6349H242.844V54.066L241.594 54.4108C240.531 54.6694 240 55.3878 240 56.566V72.4713C240 75.1438 240.56 77.1265 241.681 78.4196C242.801 79.684 244.411 80.3162 246.508 80.3162C248.692 80.3162 250.416 79.6409 251.681 78.2903C252.974 76.9397 253.62 75.0288 253.62 72.5575V56.7384C253.62 56.1637 253.52 55.6608 253.319 55.2298C253.146 54.77 252.773 54.4683 252.198 54.3246L251.12 54.066V53.6349H257.155V54.066L255.991 54.3677C255.445 54.4827 255.086 54.7556 254.914 55.1867C254.741 55.6177 254.655 56.1206 254.655 56.6953V72.4713C254.655 74.569 254.238 76.4081 253.405 77.9886C252.572 79.5403 251.408 80.7472 249.914 81.6093C248.419 82.4427 246.666 82.8593 244.655 82.8593ZM258.268 82.0835V81.6524L259.259 81.2645C259.747 81.0633 260.078 80.8047 260.25 80.4886C260.451 80.1438 260.552 79.684 260.552 79.1093V56.6091C260.552 56.0344 260.466 55.589 260.293 55.2729C260.15 54.9281 259.805 54.6551 259.259 54.4539L258.268 54.066V53.6349H278.914L279.173 60.2729H278.742L276.888 56.2212C276.63 55.7039 276.357 55.2873 276.069 54.9712C275.782 54.6551 275.351 54.497 274.776 54.497H267.018V66.954H271.63C272.204 66.954 272.635 66.8103 272.923 66.523C273.239 66.2069 273.512 65.7902 273.742 65.273L274.604 63.5488H275.035V71.3075H274.604L273.742 69.4971C273.483 68.9799 273.21 68.5776 272.923 68.2902C272.635 67.9741 272.204 67.8161 271.63 67.8161H267.018V81.2214H275.725C276.299 81.2214 276.745 81.0777 277.061 80.7904C277.377 80.4743 277.636 80.0432 277.837 79.4972L279.604 75.4455H280.035L279.776 82.0835H258.268ZM291.444 82.8593C289.864 82.8593 288.254 82.6582 286.616 82.2559C284.978 81.8823 283.614 81.3794 282.522 80.7472L282.737 74.8851H283.168L284.504 77.6869C284.907 78.4915 285.338 79.2099 285.797 79.8421C286.257 80.4455 286.889 80.9197 287.694 81.2645C288.269 81.5519 288.815 81.753 289.332 81.8679C289.878 81.9542 290.481 81.9973 291.142 81.9973C292.895 81.9973 294.275 81.5231 295.28 80.5748C296.315 79.6265 296.832 78.4053 296.832 76.911C296.832 75.5029 296.487 74.411 295.798 73.6351C295.108 72.8305 294.002 72.0546 292.479 71.3075L290.711 70.5316C288.24 69.4397 286.3 68.1897 284.892 66.7816C283.513 65.3448 282.823 63.4482 282.823 61.0919C282.823 59.3965 283.254 57.931 284.116 56.6953C285.007 55.4597 286.228 54.5114 287.78 53.8505C289.361 53.1895 291.2 52.8591 293.298 52.8591C294.821 52.8591 296.257 53.0602 297.608 53.4625C298.987 53.8648 300.18 54.4108 301.186 55.1005L300.927 60.2729H300.496L298.729 57.0401C298.24 56.0344 297.752 55.3304 297.263 54.9281C296.775 54.497 296.214 54.1953 295.582 54.0229C295.208 53.9079 294.864 53.8361 294.548 53.8074C294.231 53.7499 293.829 53.7212 293.341 53.7212C291.875 53.7212 290.639 54.1522 289.634 55.0143C288.628 55.8476 288.125 56.9827 288.125 58.4195C288.125 59.885 288.513 61.0632 289.289 61.954C290.065 62.8161 291.2 63.5919 292.694 64.2816L294.677 65.1437C297.435 66.3506 299.418 67.6437 300.625 69.023C301.832 70.3736 302.436 72.1265 302.436 74.2817C302.436 76.8104 301.473 78.8794 299.548 80.4886C297.651 82.0691 294.95 82.8593 291.444 82.8593Z" fill="white"/>
<path d="M116.863 122.05C115.203 122.05 113.783 121.749 112.601 121.145C111.444 120.517 110.564 119.699 109.961 118.694C109.357 117.688 109.056 116.569 109.056 115.337C109.056 112.294 111.017 109.956 114.939 108.322C114.235 107.366 113.607 106.398 113.054 105.417C112.526 104.437 112.262 103.293 112.262 101.985C112.262 100.2 112.89 98.7792 114.147 97.7231C115.43 96.6419 117.102 96.1013 119.164 96.1013C121.175 96.1013 122.734 96.5539 123.841 97.4591C124.947 98.3392 125.5 99.5084 125.5 100.967C125.5 102.199 124.997 103.28 123.991 104.21C122.986 105.141 121.552 105.996 119.692 106.775C120.17 107.303 120.66 107.869 121.163 108.472C121.691 109.051 122.231 109.629 122.785 110.207C123.463 110.962 124.117 111.678 124.746 112.357C125.4 113.036 126.053 113.74 126.707 114.469C127.311 113.64 127.876 112.634 128.404 111.452C128.932 110.27 129.347 109.026 129.649 107.718C129.85 106.763 129.486 106.147 128.555 105.87L128.291 105.757V105.38H132.553V105.757L132.214 105.87C131.384 106.147 130.843 106.725 130.592 107.605C130.215 109.013 129.75 110.346 129.196 111.603C128.643 112.86 128.002 114.004 127.273 115.035L131.309 119.297C131.635 119.649 131.962 119.938 132.289 120.165C132.616 120.391 132.981 120.617 133.383 120.844L133.911 121.108V121.485H126.292L123.765 118.769C123.287 119.297 122.747 119.813 122.143 120.315C121.54 120.818 120.811 121.233 119.956 121.56C119.101 121.887 118.07 122.05 116.863 122.05ZM119.239 106.285C120.22 105.405 120.924 104.525 121.351 103.645C121.804 102.739 122.03 101.746 122.03 100.665C122.03 99.6844 121.779 98.8924 121.276 98.2889C120.773 97.6603 120.082 97.346 119.201 97.346C118.372 97.346 117.68 97.6477 117.127 98.2512C116.574 98.8546 116.297 99.6215 116.297 100.552C116.297 101.13 116.398 101.734 116.599 102.362C116.825 102.991 117.215 103.708 117.768 104.512C117.919 104.713 118.12 104.952 118.372 105.229C118.623 105.505 118.912 105.857 119.239 106.285ZM119.051 119.523C119.931 119.523 120.723 119.398 121.427 119.146C122.131 118.87 122.734 118.53 123.237 118.128C122.634 117.449 122.005 116.745 121.351 116.016C120.698 115.261 120.082 114.545 119.503 113.866C118.799 113.036 118.108 112.206 117.429 111.377C116.775 110.547 116.121 109.742 115.467 108.963C114.814 109.566 114.336 110.27 114.034 111.075C113.733 111.88 113.582 112.722 113.582 113.602C113.582 115.312 114.085 116.732 115.09 117.864C116.121 118.97 117.441 119.523 119.051 119.523ZM157.351 122.164C154.912 122.164 152.699 121.673 150.713 120.693C148.752 119.687 147.193 118.203 146.036 116.242C144.879 114.281 144.301 111.88 144.301 109.038C144.301 106.876 144.653 104.977 145.357 103.343C146.061 101.709 147.017 100.338 148.224 99.2318C149.456 98.1255 150.864 97.2957 152.448 96.7425C154.057 96.1893 155.754 95.9127 157.54 95.9127C158.973 95.9127 160.293 96.0762 161.5 96.4031C162.707 96.7299 163.838 97.1825 164.894 97.7609L165.045 102.4H164.668L162.782 99.3827C162.531 98.9049 162.254 98.4775 161.953 98.1003C161.651 97.698 161.274 97.3963 160.821 97.1951C160.444 97.0191 160.067 96.8934 159.69 96.8179C159.338 96.7174 158.885 96.6671 158.332 96.6671C156.873 96.6671 155.541 97.0568 154.334 97.8363C153.152 98.6158 152.196 99.9107 151.467 101.721C150.763 103.506 150.411 105.958 150.411 109.076C150.411 112.169 150.751 114.62 151.43 116.431C152.108 118.216 153.026 119.498 154.183 120.278C155.365 121.032 156.685 121.409 158.143 121.409C158.948 121.409 159.589 121.359 160.067 121.258C160.544 121.133 161.022 120.957 161.5 120.73C161.978 120.529 162.342 120.24 162.594 119.863C162.845 119.461 163.071 119.033 163.273 118.581L164.932 114.884H165.309L165.196 120.278C164.14 120.831 162.958 121.284 161.651 121.636C160.343 121.988 158.91 122.164 157.351 122.164ZM178.687 122.164C177.153 122.164 175.669 121.887 174.236 121.334C172.828 120.781 171.558 119.963 170.427 118.882C169.32 117.776 168.44 116.406 167.787 114.771C167.133 113.137 166.806 111.226 166.806 109.038C166.806 106.876 167.133 104.977 167.787 103.343C168.44 101.709 169.333 100.351 170.464 99.2695C171.596 98.1632 172.866 97.3334 174.274 96.7802C175.707 96.2019 177.178 95.9127 178.687 95.9127C180.221 95.9127 181.691 96.1893 183.1 96.7425C184.533 97.2705 185.803 98.0877 186.909 99.1941C188.04 100.275 188.933 101.646 189.587 103.305C190.241 104.94 190.567 106.851 190.567 109.038C190.567 111.175 190.241 113.074 189.587 114.733C188.933 116.368 188.04 117.738 186.909 118.845C185.803 119.926 184.533 120.756 183.1 121.334C181.691 121.887 180.221 122.164 178.687 122.164ZM178.687 121.372C180.07 121.372 181.189 121.007 182.043 120.278C182.898 119.523 183.514 118.254 183.892 116.468C184.294 114.658 184.495 112.181 184.495 109.038C184.495 105.87 184.294 103.393 183.892 101.608C183.514 99.7976 182.898 98.5278 182.043 97.7986C181.189 97.0442 180.07 96.6671 178.687 96.6671C177.329 96.6671 176.223 97.0442 175.368 97.7986C174.513 98.5278 173.884 99.7976 173.482 101.608C173.105 103.393 172.916 105.87 172.916 109.038C172.916 112.181 173.105 114.658 173.482 116.468C173.884 118.254 174.513 119.523 175.368 120.278C176.223 121.007 177.329 121.372 178.687 121.372Z" fill="white"/>
</svg>
